grf
version=1
nRows=16
nColumns=46
inDegrees=yes
endheader
time	ground_force_1_vx	ground_force_1_vy	ground_force_1_vz	ground_force_1_px	ground_force_1_py	ground_force_1_pz	ground_moment_1_mx	ground_moment_1_my	ground_moment_1_mz	ground_force_2_vx	ground_force_2_vy	ground_force_2_vz	ground_force_2_px	ground_force_2_py	ground_force_2_pz	ground_moment_2_mx	ground_moment_2_my	ground_moment_2_mz	ground_force_3_vx	ground_force_3_vy	ground_force_3_vz	ground_force_3_px	ground_force_3_py	ground_force_3_pz	ground_moment_3_mx	ground_moment_3_my	ground_moment_3_mz	ground_force_4_vx	ground_force_4_vy	ground_force_4_vz	ground_force_4_px	ground_force_4_py	ground_force_4_pz	ground_moment_4_mx	ground_moment_4_my	ground_moment_4_mz	ground_force_5_vx	ground_force_5_vy	ground_force_5_vz	ground_force_5_px	ground_force_5_py	ground_force_5_pz	ground_moment_5_mx	ground_moment_5_my	ground_moment_5_mz
6.765000	0.000000	0.000000	0.000000	0.000000	0.000000	0.000000	0.000000	0.000000	0.000000	0.000000	0.000000	0.000000	0.000000	0.000000	0.000000	0.000000	0.000000	0.000000	0.000000	0.000000	0.000000	0.000000	0.000000	0.000000	0.000000	0.000000	0.000000	6.792871	467.450982	-8.462677	0.185394	0.000000	-1.084202	-0.000000	3.511804	0.000000	0.198965	455.142209	8.366335	0.194293	0.000000	-1.387617	0.000000	-3.842444	-0.000000
6.765500	0.000000	0.000000	0.000000	0.000000	0.000000	0.000000	0.000000	0.000000	0.000000	0.000000	0.000000	0.000000	0.000000	0.000000	0.000000	0.000000	0.000000	0.000000	0.000000	0.000000	0.000000	0.000000	0.000000	0.000000	0.000000	0.000000	0.000000	6.627378	467.562807	-8.466014	0.185540	0.000000	-1.084189	-0.000000	3.517830	0.000000	0.076764	455.294113	8.407834	0.194406	0.000000	-1.387644	0.000000	-3.849839	-0.000000
6.766000	0.000000	0.000000	0.000000	0.000000	0.000000	0.000000	0.000000	0.000000	0.000000	0.000000	0.000000	0.000000	0.000000	0.000000	0.000000	0.000000	0.000000	0.000000	0.000000	0.000000	0.000000	0.000000	0.000000	0.000000	0.000000	0.000000	0.000000	6.461695	467.681170	-8.468362	0.185685	0.000000	-1.084177	-0.000000	3.524080	0.000000	-0.044988	455.441976	8.447885	0.194519	0.000000	-1.387669	0.000000	-3.857236	-0.000000
6.766500	0.000000	0.000000	0.000000	0.000000	0.000000	0.000000	0.000000	0.000000	0.000000	0.000000	0.000000	0.000000	0.000000	0.000000	0.000000	0.000000	0.000000	0.000000	0.000000	0.000000	0.000000	0.000000	0.000000	0.000000	0.000000	0.000000	0.000000	6.295911	467.806098	-8.469714	0.185829	0.000000	-1.084166	-0.000000	3.530564	0.000000	-0.166204	455.586026	8.486483	0.194632	0.000000	-1.387695	0.000000	-3.864635	-0.000000
6.767000	0.000000	0.000000	0.000000	0.000000	0.000000	0.000000	0.000000	0.000000	0.000000	0.000000	0.000000	0.000000	0.000000	0.000000	0.000000	0.000000	0.000000	0.000000	0.000000	0.000000	0.000000	0.000000	0.000000	0.000000	0.000000	0.000000	0.000000	6.130109	467.937590	-8.470066	0.185972	0.000000	-1.084154	-0.000000	3.537291	0.000000	-0.286807	455.726495	8.523621	0.194744	0.000000	-1.387719	0.000000	-3.872038	-0.000000
6.767500	0.000000	0.000000	0.000000	0.000000	0.000000	0.000000	0.000000	0.000000	0.000000	0.000000	0.000000	0.000000	0.000000	0.000000	0.000000	0.000000	0.000000	0.000000	0.000000	0.000000	0.000000	0.000000	0.000000	0.000000	0.000000	0.000000	0.000000	5.964363	468.075619	-8.469420	0.186115	0.000000	-1.084144	-0.000000	3.544269	0.000000	-0.406725	455.863616	8.559296	0.194856	0.000000	-1.387744	0.000000	-3.879444	-0.000000
6.768000	0.000000	0.000000	0.000000	0.000000	0.000000	0.000000	0.000000	0.000000	0.000000	0.000000	0.000000	0.000000	0.000000	0.000000	0.000000	0.000000	0.000000	0.000000	0.000000	0.000000	0.000000	0.000000	0.000000	0.000000	0.000000	0.000000	0.000000	5.798742	468.220142	-8.467779	0.186256	0.000000	-1.084133	-0.000000	3.551502	0.000000	-0.525900	455.997628	8.593508	0.194968	0.000000	-1.387768	0.000000	-3.886852	-0.000000
6.768500	0.000000	0.000000	0.000000	0.000000	0.000000	0.000000	0.000000	0.000000	0.000000	0.000000	0.000000	0.000000	0.000000	0.000000	0.000000	0.000000	0.000000	0.000000	0.000000	0.000000	0.000000	0.000000	0.000000	0.000000	0.000000	0.000000	0.000000	5.633305	468.371102	-8.465150	0.186397	0.000000	-1.084123	-0.000000	3.558992	0.000000	-0.644279	456.128778	8.626260	0.195080	0.000000	-1.387792	0.000000	-3.894259	-0.000000
6.769000	0.000000	0.000000	0.000000	0.000000	0.000000	0.000000	0.000000	0.000000	0.000000	0.000000	0.000000	0.000000	0.000000	0.000000	0.000000	0.000000	0.000000	0.000000	0.000000	0.000000	0.000000	0.000000	0.000000	0.000000	0.000000	0.000000	0.000000	5.468104	468.528428	-8.461547	0.186537	0.000000	-1.084114	-0.000000	3.566741	0.000000	-0.761815	456.257339	8.657565	0.195191	0.000000	-1.387815	0.000000	-3.901664	-0.000000
6.769500	0.000000	0.000000	0.000000	0.000000	0.000000	0.000000	0.000000	0.000000	0.000000	0.000000	0.000000	0.000000	0.000000	0.000000	0.000000	0.000000	0.000000	0.000000	0.000000	0.000000	0.000000	0.000000	0.000000	0.000000	0.000000	0.000000	0.000000	5.303187	468.692041	-8.456987	0.186676	0.000000	-1.084104	-0.000000	3.574747	0.000000	-0.878465	456.383602	8.687436	0.195301	0.000000	-1.387838	0.000000	-3.909065	-0.000000
6.770000	0.000000	0.000000	0.000000	0.000000	0.000000	0.000000	0.000000	0.000000	0.000000	0.000000	0.000000	0.000000	0.000000	0.000000	0.000000	0.000000	0.000000	0.000000	0.000000	0.000000	0.000000	0.000000	0.000000	0.000000	0.000000	0.000000	0.000000	5.138600	468.861847	-8.451496	0.186814	0.000000	-1.084096	-0.000000	3.583008	0.000000	-0.994188	456.507881	8.715892	0.195411	0.000000	-1.387861	0.000000	-3.916461	-0.000000
6.770500	0.000000	0.000000	0.000000	0.000000	0.000000	0.000000	0.000000	0.000000	0.000000	0.000000	0.000000	0.000000	0.000000	0.000000	0.000000	0.000000	0.000000	0.000000	0.000000	0.000000	0.000000	0.000000	0.000000	0.000000	0.000000	0.000000	0.000000	4.974385	469.037737	-8.445100	0.186951	0.000000	-1.084087	-0.000000	3.591519	0.000000	-1.108944	456.630498	8.742947	0.195521	0.000000	-1.387884	0.000000	-3.923854	-0.000000
6.771000	0.000000	0.000000	0.000000	0.000000	0.000000	0.000000	0.000000	0.000000	0.000000	0.000000	0.000000	0.000000	0.000000	0.000000	0.000000	0.000000	0.000000	0.000000	0.000000	0.000000	0.000000	0.000000	0.000000	0.000000	0.000000	0.000000	0.000000	4.810580	469.219577	-8.437829	0.187088	0.000000	-1.084080	-0.000000	3.600274	0.000000	-1.222692	456.751781	8.768616	0.195629	0.000000	-1.387907	0.000000	-3.931242	-0.000000
6.771500	0.000000	0.000000	0.000000	0.000000	0.000000	0.000000	0.000000	0.000000	0.000000	0.000000	0.000000	0.000000	0.000000	0.000000	0.000000	0.000000	0.000000	0.000000	0.000000	0.000000	0.000000	0.000000	0.000000	0.000000	0.000000	0.000000	0.000000	4.647215	469.407209	-8.429713	0.187223	0.000000	-1.084072	-0.000000	3.609262	0.000000	-1.335388	456.872056	8.792912	0.195737	0.000000	-1.387930	0.000000	-3.938630	-0.000000
6.772000	0.000000	0.000000	0.000000	0.000000	0.000000	0.000000	0.000000	0.000000	0.000000	0.000000	0.000000	0.000000	0.000000	0.000000	0.000000	0.000000	0.000000	0.000000	0.000000	0.000000	0.000000	0.000000	0.000000	0.000000	0.000000	0.000000	0.000000	4.484313	469.600453	-8.420782	0.187358	0.000000	-1.084065	-0.000000	3.618473	0.000000	-1.446986	456.991664	8.815849	0.195844	0.000000	-1.387953	0.000000	-3.946021	-0.000000
6.772500	0.000000	0.000000	0.000000	0.000000	0.000000	0.000000	0.000000	0.000000	0.000000	0.000000	0.000000	0.000000	0.000000	0.000000	0.000000	0.000000	0.000000	0.000000	0.000000	0.000000	0.000000	0.000000	0.000000	0.000000	0.000000	0.000000	0.000000	4.321885	469.799120	-8.411068	0.187491	0.000000	-1.084059	-0.000000	3.627895	0.000000	-1.557439	457.110951	8.837438	0.195951	0.000000	-1.387975	0.000000	-3.953417	-0.000000
